<?xml version="1.0" encoding="utf-8"?>
<!-- Generator: Adobe Illustrator 23.0.6, SVG Export Plug-In . SVG Version: 6.00 Build 0)  -->
<svg role="none" focusable="false" aria-hidden="true" version="1.1" xmlns="http://www.w3.org/2000/svg" xmlns:xlink="http://www.w3.org/1999/xlink" x="0px" y="0px"
	 viewBox="0 0 96 96" style="enable-background:new 0 0 96 96;" xml:space="preserve">
<style type="text/css">
	.st0{display:none;}
	.st1{display:inline;}
	.st2{fill:none;stroke:#1D1D24;stroke-width:1.0206;stroke-linecap:round;stroke-linejoin:round;stroke-miterlimit:10;}
	
		.st3{display:inline;fill:none;stroke:#1D1D24;stroke-width:1.0206;stroke-linecap:round;stroke-linejoin:round;stroke-miterlimit:10;}
	.st4{fill:none;stroke:#1D1D24;stroke-linecap:round;stroke-linejoin:round;stroke-miterlimit:10;}
	.st5{display:inline;fill:none;stroke:#1D1D24;stroke-linecap:round;stroke-linejoin:round;stroke-miterlimit:10;}
	.st6{display:inline;fill:#1D1D24;}
	.st7{display:inline;fill:none;stroke:#1D1D24;stroke-width:2;stroke-linejoin:round;stroke-miterlimit:10;}
	.st8{display:inline;fill:none;stroke:#1D1D24;stroke-width:2;stroke-linecap:round;stroke-linejoin:round;stroke-miterlimit:10;}
	.st9{clip-path:url(#SVGID_2_);fill:none;stroke:#1D1D24;stroke-width:2;stroke-linejoin:round;stroke-miterlimit:10;}
	.st10{display:inline;fill:none;stroke:#1D1D24;stroke-miterlimit:10;}
	.st11{display:inline;fill:none;stroke:#1D1D24;stroke-linecap:round;stroke-miterlimit:10;}
	.st12{fill:none;stroke:#1D1D24;stroke-width:2;stroke-linecap:round;stroke-linejoin:round;stroke-miterlimit:10;}
	.st13{display:inline;fill:none;stroke:#1D1D24;stroke-width:2;stroke-linecap:square;stroke-miterlimit:10;}
	.st14{display:inline;fill:none;stroke:#1D1D24;stroke-width:2;stroke-linecap:round;stroke-miterlimit:10;}
	.st15{display:inline;fill:none;stroke:#1D1D24;stroke-width:2;stroke-miterlimit:10;}
	.st16{fill:none;stroke:#1D1D24;stroke-width:2;stroke-miterlimit:10;}
	.st17{display:inline;fill:none;stroke:#00FFB3;stroke-width:5.500000e-02;stroke-linecap:round;}
	.st18{display:inline;fill:none;stroke:#B300B3;stroke-width:5.500000e-02;stroke-linecap:round;}
	.st19{display:inline;fill:none;stroke:#FFB300;stroke-width:5.500000e-02;stroke-linecap:round;}
	.st20{fill:none;stroke:#CCCCCC;stroke-width:5.000000e-02;stroke-linecap:round;stroke-dasharray:5.000000e-02,0.2;}
	
		.st21{display:inline;fill:none;stroke:#CCCCCC;stroke-width:5.000000e-02;stroke-linecap:round;stroke-dasharray:5.000000e-02,0.2;}
	.st22{display:inline;fill:none;stroke:#B3B3B3;stroke-width:5.000000e-02;stroke-linecap:round;}
	.st23{fill:none;stroke:#00FFB3;stroke-width:5.500000e-02;stroke-linecap:round;}
	.st24{fill:none;stroke:#B300B3;stroke-width:5.500000e-02;stroke-linecap:round;}
	.st25{fill:none;stroke:#FFB300;stroke-width:5.500000e-02;stroke-linecap:round;}
	.st26{fill:none;stroke:#B3B3B3;stroke-width:5.000000e-02;stroke-linecap:round;}
	.st27{fill:none;stroke:#00FFB3;stroke-width:2.813953e-02;stroke-linecap:round;}
	.st28{fill:none;stroke:#B300B3;stroke-width:2.720587e-02;stroke-linecap:round;}
	.st29{fill:none;stroke:#FFB300;stroke-width:2.720587e-02;stroke-linecap:round;}
	.st30{fill:none;stroke:#CCCCCC;stroke-width:2.446808e-02;stroke-linecap:round;stroke-dasharray:2.446808e-02,9.787234e-02;}
	.st31{fill:none;stroke:#B3B3B3;stroke-width:2.446808e-02;stroke-linecap:round;}
	.st32{fill:none;stroke:#B3B3B3;stroke-width:2.558140e-02;stroke-linecap:round;}
	.st33{display:inline;fill:none;stroke:#00FFB3;stroke-width:6.599999e-02;stroke-linecap:round;}
	.st34{display:inline;fill:none;stroke:#B300B3;stroke-width:6.093029e-02;stroke-linecap:round;}
	.st35{display:inline;fill:none;stroke:#FFB300;stroke-width:6.093029e-02;stroke-linecap:round;}
	.st36{fill:none;stroke:#CCCCCC;stroke-width:5.742337e-02;stroke-linecap:round;stroke-dasharray:5.742337e-02,0.2297;}
	
		.st37{display:inline;fill:none;stroke:#CCCCCC;stroke-width:5.475969e-02;stroke-linecap:round;stroke-dasharray:5.475969e-02,0.219;}
	
		.st38{display:inline;fill:none;stroke:#CCCCCC;stroke-width:4.995151e-02;stroke-linecap:round;stroke-dasharray:4.995151e-02,0.1998;}
	
		.st39{display:inline;fill:none;stroke:#CCCCCC;stroke-width:5.993596e-02;stroke-linecap:round;stroke-dasharray:5.993596e-02,0.2397;}
	
		.st40{display:inline;fill:none;stroke:#CCCCCC;stroke-width:6.423818e-02;stroke-linecap:round;stroke-dasharray:6.423818e-02,0.257;}
	.st41{display:inline;fill:none;stroke:#B3B3B3;stroke-width:5.477093e-02;stroke-linecap:round;}
	.st42{display:inline;fill:none;stroke:#B3B3B3;stroke-width:5.478010e-02;stroke-linecap:round;}
	.st43{display:inline;fill:none;stroke:#B3B3B3;stroke-width:6.000000e-02;stroke-linecap:round;}
	.st44{fill:#1D1D24;}
	.st45{fill:none;stroke:#1D1D24;stroke-width:2;stroke-linecap:square;stroke-linejoin:round;}
	.st46{fill:none;stroke:#1D1D24;stroke-width:2;stroke-linecap:round;stroke-linejoin:round;}
	.st47{fill:none;stroke:#1D1D24;stroke-width:2;stroke-linejoin:round;}
	.st48{fill:none;stroke:#1D1D24;stroke-width:2;stroke-linecap:round;}
	.st49{fill:none;stroke:#1D1D24;stroke-width:4;stroke-linecap:round;stroke-linejoin:round;stroke-miterlimit:10;}
	.st50{clip-path:url(#SVGID_4_);fill:none;stroke:#1D1D24;stroke-width:2;stroke-linecap:round;stroke-linejoin:round;}
	.st51{clip-path:url(#SVGID_4_);fill:none;stroke:#1D1D24;stroke-width:2;stroke-linecap:round;}
	.st52{fill:none;stroke:#1D1D24;stroke-width:4;stroke-linecap:square;stroke-linejoin:round;}
	.st53{fill:none;stroke:#1D1D24;stroke-width:4;stroke-linecap:round;stroke-linejoin:round;}
	.st54{fill:none;stroke:#1D1D24;stroke-width:4;stroke-linejoin:round;}
	.st55{clip-path:url(#SVGID_6_);fill:none;stroke:#1D1D24;stroke-width:4;stroke-linecap:round;stroke-linejoin:round;}
	.st56{clip-path:url(#SVGID_6_);fill:none;stroke:#1D1D24;stroke-width:4;stroke-linecap:round;}
	.st57{opacity:0.66;fill:#A51033;}
	.st58{fill:none;stroke:#1D1D24;stroke-width:4.0526;stroke-linecap:square;stroke-linejoin:round;}
	.st59{fill:none;stroke:#1D1D24;stroke-width:4.0526;stroke-linejoin:round;}
	.st60{fill:none;stroke:#1D1D24;stroke-width:2.0263;stroke-linecap:square;stroke-linejoin:round;}
	.st61{fill:none;stroke:#1D1D24;stroke-width:2.0263;stroke-linejoin:round;}
	.st62{fill:none;stroke:#1D1D24;stroke-width:2;stroke-linejoin:round;stroke-miterlimit:10;}
	.st63{fill:none;stroke:#1D1D24;stroke-width:2;stroke-linecap:square;stroke-linejoin:round;stroke-miterlimit:10;}
	.st64{fill:none;stroke:#1D1D24;stroke-width:4;stroke-linejoin:round;stroke-miterlimit:10;}
	.st65{fill:none;stroke:#1D1D24;stroke-width:4;stroke-linecap:square;stroke-linejoin:round;stroke-miterlimit:10;}
	.st66{clip-path:url(#SVGID_8_);}
	.st67{clip-path:url(#SVGID_10_);}
	.st68{clip-path:url(#SVGID_12_);}
	.st69{fill:none;stroke:#1D1D24;stroke-width:4;stroke-miterlimit:10;}
	.st70{fill:none;stroke:#1D1D24;stroke-width:2;stroke-linecap:round;stroke-miterlimit:10;}
	.st71{fill:none;stroke:#1D1D24;stroke-width:4;stroke-linecap:round;stroke-miterlimit:10;}
	.st72{fill:none;stroke:#1D1D24;stroke-width:2.1909;stroke-linecap:round;stroke-linejoin:round;stroke-miterlimit:10;}
	.st73{fill:none;stroke:#1D1D24;stroke-width:2;stroke-linecap:square;stroke-miterlimit:10;}
	.st74{fill:none;stroke:#1D1D24;stroke-width:2;}
	.st75{fill:none;stroke:#1D1D24;stroke-width:4;}
	.st76{fill:none;stroke:#1D1D24;stroke-width:4;stroke-linecap:round;}
	.st77{fill:none;stroke:#1D1D24;stroke-width:2;stroke-linecap:square;}
	.st78{fill:none;stroke:#1D1D24;stroke-width:4;stroke-linecap:square;}
	.st79{fill:none;}
	.st80{fill:none;stroke:#1D1D24;stroke-width:4;stroke-linecap:square;stroke-miterlimit:10;}
</style>
<g class="st0">
</g>
<g class="st0">
	<g class="st1">
		<path class="st23" d="M84.4,88H11.6c-2,0-3.6-1.6-3.6-3.6V11.6C8,9.6,9.6,8,11.6,8h72.7c2,0,3.6,1.6,3.6,3.6v72.7
			C88,86.4,86.4,88,84.4,88z"/>
		<path class="st24" d="M76.2,92H19.8c-2.1,0-3.8-1.7-3.8-3.8V7.8C16,5.7,17.7,4,19.8,4h56.3C78.3,4,80,5.7,80,7.8v80.3
			C80,90.3,78.3,92,76.2,92z"/>
		<path class="st25" d="M4,76.2V19.8C4,17.7,5.7,16,7.8,16h80.3c2.1,0,3.8,1.7,3.8,3.8v56.3c0,2.1-1.7,3.8-3.8,3.8H7.8
			C5.7,80,4,78.3,4,76.2z"/>
		<g>
			<line class="st20" x1="8" y1="8" x2="88" y2="88"/>
		</g>
		<line class="st20" x1="8" y1="88" x2="88" y2="8"/>
		<circle class="st20" cx="48" cy="48" r="12"/>
		<circle class="st20" cx="48" cy="48" r="20"/>
		<circle class="st20" cx="48" cy="48" r="28"/>
		<line class="st26" x1="48" y1="8" x2="48" y2="88"/>
		<line class="st26" x1="8" y1="48" x2="88" y2="48"/>
		<circle class="st26" cx="48" cy="48" r="40"/>
	</g>
</g>
<g>
	<g>
		<rect x="28.7" y="55" class="st52" width="38.6" height="37"/>
		<path class="st53" d="M56,65H43.8c-6.4,0-6.4,8.5,0,8.5h8.5c6.3,0,6.4,8.5,0,8.5H39"/>
		<line class="st53" x1="48" y1="61" x2="48" y2="86"/>
		<g>
			<path class="st44" d="M48,6c21.4,0,30,14.7,30,29.4c0-4.2-4-8.4-10.7-8.4c-2.2,0-5.3,0.9-7.1,3.4c-0.4,0.6-1,0.8-1.7,0.8
				c-0.6,0-1.3-0.3-1.8-0.8C54.3,27.9,50.2,27,48,27s-6.3,0.9-8.7,3.5c-0.5,0.5-1.1,0.8-1.8,0.8c-0.6,0-1.3-0.3-1.7-0.8
				C34,27.9,30.9,27,28.7,27C22,27,18,31.2,18,35.4C18,20.7,26.6,6,48,6 M48,2C37,2,28,5.6,22,12.5c-5.1,5.9-8,14-8,22.8
				c0,2.2,1.8,4,4,4s4-1.8,4-4c0-2.1,2.6-4.4,6.7-4.4c1.2,0,3,0.6,3.8,1.8c1.1,1.6,2.9,2.5,4.9,2.5c1.8,0,3.5-0.7,4.7-2
				c1.5-1.5,4.4-2.2,5.8-2.2s4.4,0.7,5.8,2.2c1.2,1.3,2.9,2,4.7,2c2,0,3.8-0.9,4.9-2.5c0.9-1.2,2.6-1.8,3.8-1.8
				c4.1,0,6.7,2.3,6.7,4.4c0,2.2,1.8,4,4,4c2.2,0,4-1.8,4-4c0-8.9-2.8-17-8-22.8C68,5.6,59,2,48,2L48,2z"/>
		</g>
		<line class="st54" x1="18" y1="35.4" x2="30.9" y2="56.3"/>
		<line class="st54" x1="78" y1="35.4" x2="65.1" y2="56.3"/>
		<g>
			<defs>
				<path id="SVGID_5_" d="M78,35.4c0-4.2-4-8.4-10.7-8.4c-2.2,0-5.3,0.9-7.1,3.4c-0.8,1.1-2.5,1.1-3.5,0.1C54.3,27.9,50.2,27,48,27
					s-6.3,0.9-8.7,3.5c-1,1-2.7,1-3.5-0.1C34,27.9,30.9,27,28.7,27C22,27,18,31.2,18,35.4v21h60V35.4z"/>
			</defs>
			<clipPath id="SVGID_2_">
				<use xlink:href="#SVGID_5_"  style="overflow:visible;"/>
			</clipPath>
			
				<line style="clip-path:url(#SVGID_2_);fill:none;stroke:#1D1D24;stroke-width:4;stroke-linecap:round;stroke-linejoin:round;" x1="37.3" y1="31.2" x2="43.7" y2="54.2"/>
			
				<line style="clip-path:url(#SVGID_2_);fill:none;stroke:#1D1D24;stroke-width:4;stroke-linecap:round;" x1="58.7" y1="31.2" x2="52.3" y2="54.2"/>
		</g>
	</g>
</g>
</svg>
