<?xml version="1.0" standalone="no"?>
<!DOCTYPE svg PUBLIC "-//W3C//DTD SVG 20010904//EN"
 "http://www.w3.org/TR/2001/REC-SVG-20010904/DTD/svg10.dtd">
<svg version="1.0" xmlns="http://www.w3.org/2000/svg"
 width="500.000000pt" height="500.000000pt" viewBox="0 0 500.000000 500.000000"
 preserveAspectRatio="xMidYMid meet">

<g transform="translate(0.000000,500.000000) scale(0.100000,-0.100000)"
fill="#000000" stroke="none">
<path d="M2053 3031 c-46 -92 -83 -171 -83 -175 0 -5 34 -77 76 -160 42 -83
96 -191 121 -241 24 -49 53 -106 63 -125 11 -19 74 -146 142 -282 68 -136 125
-247 128 -247 6 0 170 330 170 342 0 5 -17 43 -38 85 -58 115 -405 798 -441
867 -17 33 -31 65 -31 71 0 6 -6 16 -12 22 -10 7 -33 -30 -95 -157z"/>
<path d="M2777 3032 c-43 -86 -102 -204 -132 -261 l-53 -104 86 -171 c47 -94
86 -172 87 -174 1 -1 12 18 24 43 11 25 30 65 42 90 12 25 25 45 30 45 4 0 45
-73 90 -162 45 -90 86 -169 91 -175 8 -10 56 -13 179 -13 93 0 169 2 169 4 0
3 -47 96 -104 208 -57 112 -175 344 -262 516 -87 171 -161 312 -164 312 -3 0
-40 -71 -83 -158z"/>
<path d="M1745 2423 c-72 -141 -132 -260 -133 -265 -2 -5 73 -7 170 -6 l173 3
42 80 c23 44 42 89 43 99 0 11 -19 56 -42 100 -23 45 -60 118 -83 163 l-41 81
-129 -255z"/>
</g>
</svg>
