<?xml version="1.0" encoding="utf-8"?>
<!-- Generator: Adobe Illustrator 23.0.6, SVG Export Plug-In . SVG Version: 6.00 Build 0)  -->
<svg role="none" focusable="false" aria-hidden="true" version="1.1" xmlns="http://www.w3.org/2000/svg" xmlns:xlink="http://www.w3.org/1999/xlink" x="0px" y="0px"
	 viewBox="0 0 96 96" style="enable-background:new 0 0 96 96;" xml:space="preserve">
<style type="text/css">
	.st0{display:none;}
	.st1{display:inline;}
	.st2{fill:none;stroke:#1D1D24;stroke-width:1.0206;stroke-linecap:round;stroke-linejoin:round;stroke-miterlimit:10;}
	
		.st3{display:inline;fill:none;stroke:#1D1D24;stroke-width:1.0206;stroke-linecap:round;stroke-linejoin:round;stroke-miterlimit:10;}
	.st4{fill:none;stroke:#1D1D24;stroke-linecap:round;stroke-linejoin:round;stroke-miterlimit:10;}
	.st5{display:inline;fill:none;stroke:#1D1D24;stroke-linecap:round;stroke-linejoin:round;stroke-miterlimit:10;}
	.st6{display:inline;fill:#1D1D24;}
	.st7{display:inline;fill:none;stroke:#1D1D24;stroke-width:2;stroke-linejoin:round;stroke-miterlimit:10;}
	.st8{display:inline;fill:none;stroke:#1D1D24;stroke-width:2;stroke-linecap:round;stroke-linejoin:round;stroke-miterlimit:10;}
	.st9{clip-path:url(#SVGID_2_);fill:none;stroke:#1D1D24;stroke-width:2;stroke-linejoin:round;stroke-miterlimit:10;}
	.st10{display:inline;fill:none;stroke:#1D1D24;stroke-miterlimit:10;}
	.st11{display:inline;fill:none;stroke:#1D1D24;stroke-linecap:round;stroke-miterlimit:10;}
	.st12{fill:none;stroke:#1D1D24;stroke-width:2;stroke-linecap:round;stroke-linejoin:round;stroke-miterlimit:10;}
	.st13{display:inline;fill:none;stroke:#1D1D24;stroke-width:2;stroke-linecap:square;stroke-miterlimit:10;}
	.st14{display:inline;fill:none;stroke:#1D1D24;stroke-width:2;stroke-linecap:round;stroke-miterlimit:10;}
	.st15{display:inline;fill:none;stroke:#1D1D24;stroke-width:2;stroke-miterlimit:10;}
	.st16{fill:none;stroke:#1D1D24;stroke-width:2;stroke-miterlimit:10;}
	.st17{display:inline;fill:none;stroke:#00FFB3;stroke-width:5.500000e-02;stroke-linecap:round;}
	.st18{display:inline;fill:none;stroke:#B300B3;stroke-width:5.500000e-02;stroke-linecap:round;}
	.st19{display:inline;fill:none;stroke:#FFB300;stroke-width:5.500000e-02;stroke-linecap:round;}
	.st20{fill:none;stroke:#CCCCCC;stroke-width:5.000000e-02;stroke-linecap:round;stroke-dasharray:5.000000e-02,0.2;}
	
		.st21{display:inline;fill:none;stroke:#CCCCCC;stroke-width:5.000000e-02;stroke-linecap:round;stroke-dasharray:5.000000e-02,0.2;}
	.st22{display:inline;fill:none;stroke:#B3B3B3;stroke-width:5.000000e-02;stroke-linecap:round;}
	.st23{fill:none;stroke:#00FFB3;stroke-width:5.500000e-02;stroke-linecap:round;}
	.st24{fill:none;stroke:#B300B3;stroke-width:5.500000e-02;stroke-linecap:round;}
	.st25{fill:none;stroke:#FFB300;stroke-width:5.500000e-02;stroke-linecap:round;}
	.st26{fill:none;stroke:#B3B3B3;stroke-width:5.000000e-02;stroke-linecap:round;}
	.st27{fill:none;stroke:#00FFB3;stroke-width:2.813953e-02;stroke-linecap:round;}
	.st28{fill:none;stroke:#B300B3;stroke-width:2.720587e-02;stroke-linecap:round;}
	.st29{fill:none;stroke:#FFB300;stroke-width:2.720587e-02;stroke-linecap:round;}
	.st30{fill:none;stroke:#CCCCCC;stroke-width:2.446808e-02;stroke-linecap:round;stroke-dasharray:2.446808e-02,9.787234e-02;}
	.st31{fill:none;stroke:#B3B3B3;stroke-width:2.446808e-02;stroke-linecap:round;}
	.st32{fill:none;stroke:#B3B3B3;stroke-width:2.558140e-02;stroke-linecap:round;}
	.st33{display:inline;fill:none;stroke:#00FFB3;stroke-width:6.599999e-02;stroke-linecap:round;}
	.st34{display:inline;fill:none;stroke:#B300B3;stroke-width:6.093029e-02;stroke-linecap:round;}
	.st35{display:inline;fill:none;stroke:#FFB300;stroke-width:6.093029e-02;stroke-linecap:round;}
	.st36{fill:none;stroke:#CCCCCC;stroke-width:5.742337e-02;stroke-linecap:round;stroke-dasharray:5.742337e-02,0.2297;}
	
		.st37{display:inline;fill:none;stroke:#CCCCCC;stroke-width:5.475969e-02;stroke-linecap:round;stroke-dasharray:5.475969e-02,0.219;}
	
		.st38{display:inline;fill:none;stroke:#CCCCCC;stroke-width:4.995151e-02;stroke-linecap:round;stroke-dasharray:4.995151e-02,0.1998;}
	
		.st39{display:inline;fill:none;stroke:#CCCCCC;stroke-width:5.993596e-02;stroke-linecap:round;stroke-dasharray:5.993596e-02,0.2397;}
	
		.st40{display:inline;fill:none;stroke:#CCCCCC;stroke-width:6.423818e-02;stroke-linecap:round;stroke-dasharray:6.423818e-02,0.257;}
	.st41{display:inline;fill:none;stroke:#B3B3B3;stroke-width:5.477093e-02;stroke-linecap:round;}
	.st42{display:inline;fill:none;stroke:#B3B3B3;stroke-width:5.478010e-02;stroke-linecap:round;}
	.st43{display:inline;fill:none;stroke:#B3B3B3;stroke-width:6.000000e-02;stroke-linecap:round;}
	.st44{fill:#1D1D24;}
	.st45{fill:none;stroke:#1D1D24;stroke-width:2;stroke-linecap:square;stroke-linejoin:round;}
	.st46{fill:none;stroke:#1D1D24;stroke-width:2;stroke-linecap:round;stroke-linejoin:round;}
	.st47{fill:none;stroke:#1D1D24;stroke-width:2;stroke-linejoin:round;}
	.st48{fill:none;stroke:#1D1D24;stroke-width:2;stroke-linecap:round;}
	.st49{fill:none;stroke:#1D1D24;stroke-width:4;stroke-linecap:round;stroke-linejoin:round;stroke-miterlimit:10;}
	.st50{clip-path:url(#SVGID_4_);fill:none;stroke:#1D1D24;stroke-width:2;stroke-linecap:round;stroke-linejoin:round;}
	.st51{clip-path:url(#SVGID_4_);fill:none;stroke:#1D1D24;stroke-width:2;stroke-linecap:round;}
	.st52{fill:none;stroke:#1D1D24;stroke-width:4;stroke-linecap:square;stroke-linejoin:round;}
	.st53{fill:none;stroke:#1D1D24;stroke-width:4;stroke-linecap:round;stroke-linejoin:round;}
	.st54{fill:none;stroke:#1D1D24;stroke-width:4;stroke-linejoin:round;}
	.st55{clip-path:url(#SVGID_6_);fill:none;stroke:#1D1D24;stroke-width:4;stroke-linecap:round;stroke-linejoin:round;}
	.st56{clip-path:url(#SVGID_6_);fill:none;stroke:#1D1D24;stroke-width:4;stroke-linecap:round;}
	.st57{opacity:0.66;fill:#A51033;}
	.st58{fill:none;stroke:#1D1D24;stroke-width:4.0526;stroke-linecap:square;stroke-linejoin:round;}
	.st59{fill:none;stroke:#1D1D24;stroke-width:4.0526;stroke-linejoin:round;}
	.st60{fill:none;stroke:#1D1D24;stroke-width:2.0263;stroke-linecap:square;stroke-linejoin:round;}
	.st61{fill:none;stroke:#1D1D24;stroke-width:2.0263;stroke-linejoin:round;}
	.st62{fill:none;stroke:#1D1D24;stroke-width:2;stroke-linejoin:round;stroke-miterlimit:10;}
	.st63{fill:none;stroke:#1D1D24;stroke-width:2;stroke-linecap:square;stroke-linejoin:round;stroke-miterlimit:10;}
	.st64{fill:none;stroke:#1D1D24;stroke-width:4;stroke-linejoin:round;stroke-miterlimit:10;}
	.st65{fill:none;stroke:#1D1D24;stroke-width:4;stroke-linecap:square;stroke-linejoin:round;stroke-miterlimit:10;}
	.st66{clip-path:url(#SVGID_8_);}
	.st67{clip-path:url(#SVGID_10_);}
	.st68{clip-path:url(#SVGID_12_);}
	.st69{fill:none;stroke:#1D1D24;stroke-width:4;stroke-miterlimit:10;}
	.st70{fill:none;stroke:#1D1D24;stroke-width:2;stroke-linecap:round;stroke-miterlimit:10;}
	.st71{fill:none;stroke:#1D1D24;stroke-width:4;stroke-linecap:round;stroke-miterlimit:10;}
	.st72{fill:none;stroke:#1D1D24;stroke-width:2.1909;stroke-linecap:round;stroke-linejoin:round;stroke-miterlimit:10;}
	.st73{fill:none;stroke:#1D1D24;stroke-width:2;stroke-linecap:square;stroke-miterlimit:10;}
	.st74{fill:none;stroke:#1D1D24;stroke-width:2;}
	.st75{fill:none;stroke:#1D1D24;stroke-width:4;}
	.st76{fill:none;stroke:#1D1D24;stroke-width:4;stroke-linecap:round;}
	.st77{fill:none;stroke:#1D1D24;stroke-width:2;stroke-linecap:square;}
	.st78{fill:none;stroke:#1D1D24;stroke-width:4;stroke-linecap:square;}
	.st79{fill:none;}
	.st80{fill:none;stroke:#1D1D24;stroke-width:4;stroke-linecap:square;stroke-miterlimit:10;}
</style>
<g class="st0">
	<g class="st1">
		<path class="st16" d="M11.4,24.5v-5.1c0-1.6-1.4-2.9-3.1-2.9H3.4"/>
		<g>
			<path class="st16" d="M1.8,19.4H1.1c-0.9,0-1.7-0.7-1.7-1.7l0-4.6c0-0.9,0.7-1.7,1.7-1.7h0.7c0.9,0,1.7,0.7,1.7,1.7v4.6
				C3.4,18.6,2.7,19.4,1.8,19.4z"/>
		</g>
		<line class="st16" x1="-29.6" y1="23.5" x2="11.4" y2="23.5"/>
		<path class="st16" d="M11.4,24.2v16.3v12.1c0,1.6-1.3,2.9-2.9,2.9H-1.6h-25.1c-1.6,0-2.9-1.3-2.9-2.9V24.2v0.3V19
			c0-1.4,1.2-2.5,2.6-2.5h5.4"/>
	</g>
	<g class="st1">
		<line class="st16" x1="11.4" y1="93.5" x2="11.4" y2="77.2"/>
		<path class="st16" d="M11.4,77.5v-5.1c0-1.6-1.4-2.9-3.1-2.9H3.4"/>
		<g>
			<path class="st16" d="M1.8,72.4H1.1c-0.9,0-1.7-0.7-1.7-1.7l0-4.6c0-0.9,0.7-1.7,1.7-1.7h0.7c0.9,0,1.7,0.7,1.7,1.7v4.6
				C3.4,71.6,2.7,72.4,1.8,72.4z"/>
		</g>
		<line class="st16" x1="-29.6" y1="76.5" x2="11.4" y2="76.5"/>
	</g>
	<rect x="1.4" y="80.5" class="st15" width="6" height="6"/>
	<polyline class="st15" points="1.4,94.5 1.4,89.5 7.4,89.5 7.4,92.5 	"/>
	<circle class="st15" cx="6.4" cy="102.5" r="10"/>
	<polyline class="st15" points="2.4,106.5 6.4,102.5 6.4,95.5 	"/>
</g>
<g class="st0">
	<g class="st1">
		<path class="st23" d="M87.1,91H8.9C6.8,91,5,89.2,5,87.1V8.9C5,6.8,6.8,5,8.9,5h78.2C89.2,5,91,6.8,91,8.9v78.2
			C91,89.2,89.2,91,87.1,91z"/>
		<path class="st24" d="M77.9,95H18.1c-2.3,0-4.1-1.8-4.1-4.1V5.1C14,2.8,15.8,1,18.1,1h59.8C80.2,1,82,2.8,82,5.1v85.8
			C82,93.2,80.2,95,77.9,95z"/>
		<path class="st25" d="M1,77.9V18.1C1,15.8,2.8,14,5.1,14h85.8c2.3,0,4.1,1.8,4.1,4.1v59.8c0,2.3-1.8,4.1-4.1,4.1H5.1
			C2.8,82,1,80.2,1,77.9z"/>
		<g>
			<line class="st20" x1="5.2" y1="5.2" x2="90.7" y2="90.7"/>
		</g>
		<line class="st20" x1="5.2" y1="90.7" x2="90.7" y2="5.2"/>
		<circle class="st20" cx="48" cy="48" r="13"/>
		<circle class="st20" cx="48" cy="48" r="22"/>
		<circle class="st20" cx="48" cy="48" r="31"/>
		<line class="st26" x1="48" y1="5.2" x2="48" y2="90.7"/>
		<line class="st26" x1="5" y1="48" x2="90.5" y2="48"/>
		<circle class="st26" cx="48" cy="48" r="43"/>
	</g>
</g>
<g>
	<polyline class="st53" points="78,58 78,18 64,18 64,4 12,4 12,92 78,92 78,82 	"/>
	<line class="st54" x1="64" y1="4" x2="78" y2="18"/>
	<line class="st52" x1="36" y1="32" x2="46" y2="32"/>
	<line class="st52" x1="52" y1="32" x2="58" y2="32"/>
	<line class="st52" x1="36" y1="26" x2="65.3" y2="26"/>
	<line class="st52" x1="36" y1="50" x2="60" y2="50"/>
	<line class="st52" x1="36" y1="44" x2="54" y2="44"/>
	<line class="st52" x1="60" y1="44" x2="66.2" y2="44"/>
	<rect x="20" y="24" class="st52" width="10" height="10"/>
	<rect x="20" y="42" class="st52" width="10" height="10"/>
	<line class="st52" x1="36" y1="68" x2="48" y2="68"/>
	<line class="st52" x1="36" y1="62" x2="52" y2="62"/>
	<rect x="20" y="60" class="st52" width="10" height="10"/>
	<polyline class="st53" points="66,69.7 72.2,76 89,59.2 	"/>
	<polyline class="st53" points="84,76 84,82 60,82 60,58 84,58 84,64 	"/>
</g>
</svg>
